<svg viewBox="0 0 28 32" xmlns="http://www.w3.org/2000/svg"><path d="m489 117h-14c-.56 0-1-.45-1-1 0-.56.44-1 1-1h14c.55 0 1 .44 1 1 0 .55-.45 1-1 1zm0 5h-14c-.56 0-1-.45-1-1 0-.56.44-1 1-1h14c.55 0 1 .44 1 1 0 .55-.45 1-1 1zm0 5h-14c-.56 0-1-.45-1-1 0-.56.44-1 1-1h14c.55 0 1 .44 1 1 0 .55-.45 1-1 1zm-12-22h2.22c0-1.11 1.24-2 2.77-2s2.77.89 2.77 2h2.22v4h-10v-4zm15 0h-3v-2h-2.7c-.87-1.19-2.47-2-4.31-2-1.85 0-3.44.81-4.31 2h-2.7v2h-3c-2.21 0-4 1.79-4 4v20c0 2.2 1.79 4 4 4h20c2.2 0 4-1.8 4-4v-20c0-2.21-1.8-4-4-4z" fill-rule="evenodd" transform="translate(-468 -101)"/></svg>