<?xml version="1.0" encoding="iso-8859-1"?>
<!-- Uploaded to: SVG Repo, www.svgrepo.com, Generator: SVG Repo Mixer Tools -->
<svg fill="#000000" height="800px" width="800px" version="1.1" id="Layer_1" xmlns="http://www.w3.org/2000/svg" xmlns:xlink="http://www.w3.org/1999/xlink" 
	 viewBox="0 0 511.965 511.965" xml:space="preserve">
<g>
	<g>
		<g>
			<path d="M505.138,277.967c-18.723-26.094-40.188-26.89-81.032-5.416l-85.119,53.169c-3.826,1.992-14.651,3.804-30.021,4.7
				c-1.033-6.697-3.859-13.7-8.507-20.635c-15.644-23.32-33.326-33.648-60.516-33.648h-31.573c-14.107,0-27.671-4.392-38.374-12.466
				c-19.368-14.609-40.519-18.053-63.329-12.802v-5.548c0-11.782-9.551-21.333-21.333-21.333h-64C9.551,223.988,0,233.539,0,245.321
				v213.333c0,11.782,9.551,21.333,21.333,21.333h64c11.782,0,21.333-9.551,21.333-21.333v-0.027l64.022-0.048l3.964,0.081
				c17.672,0.004,34.873-1.295,51.902-3.887l103.805-13.619c4.184-0.093,8.328-0.567,12.405-1.41
				c0.059-0.012,0.101-0.021,0.154-0.033c0.45-0.062,0.645-0.1,0.838-0.144c11.965-1.965,23.02-7.725,32.159-16.174l122.191-95.162
				C513.486,315.532,516.412,293.71,505.138,277.967z M64,437.321H42.667V266.654H64V437.321z M348.925,390.335l-1.63,1.407
				c-3.455,3.302-7.256,5.281-10.784,5.773c-0.011,0.001-0.021,0.004-0.032,0.006c0.235-0.027,0.492-0.055,0.785-0.086
				c1.688-0.111,1.688-0.111,2.048-0.103l-4.577,0.512c-0.135,0.031-0.267,0.074-0.401,0.107c0.122-0.037,0.239-0.071,0.35-0.101
				l-0.083,0.009c-1.899,0.43-3.818,0.647-5.764,0.647l-2.776,0.181l-105.493,13.845c-15.336,2.33-30.391,3.467-45.501,3.467
				l-3.981-0.081l-64.414,0.045V295.373c15.796-6,27.56-5.233,37.628,2.361c18.227,13.75,40.833,21.07,64.068,21.07h31.573
				c11.045,0,15.994,2.23,22.701,11.345c-2.079,0.26-4.423,0.442-6.871,0.512h-57.074c-28.03,0-49.365,17.387-49.365,42.667
				c0,11.782,9.551,21.333,21.333,21.333c11.782,0,21.333-9.551,21.333-21.333c0,0.431,0.529,0,6.699,0h56.938
				c0.016,0,0.031,0.002,0.048,0.002c2.043,0.031,4.122,0.067,8.692,0.15c14.796,0.262,23.942,0.313,34.052,0.066
				c28.044-0.684,48.037-3.522,61.905-10.912l85.013-53.114c7.522-3.915,13.424-6.525,17.646-8.009L348.925,390.335z"/>
			<path d="M334.736,397.843c0.576-0.131,1.157-0.239,1.744-0.322c-0.684,0.08-1.182,0.161-1.795,0.328L334.736,397.843z"/>
			<path d="M64,181.321h384c11.782,0,21.333-9.551,21.333-21.333V53.321c0-11.782-9.551-21.333-21.333-21.333h-85.122
				c-0.071-0.001-0.14-0.011-0.211-0.011s-0.14,0.01-0.211,0.011h-212.91c-0.071-0.001-0.14-0.011-0.211-0.011
				s-0.14,0.01-0.211,0.011H64c-11.782,0-21.333,9.551-21.333,21.333v106.667C42.667,171.77,52.218,181.321,64,181.321z
				 M170.667,138.654v-64h170.667v64H170.667z M426.667,138.654H384v-64h42.667V138.654z M85.333,74.654H128v64H85.333V74.654z"/>
		</g>
	</g>
</g>
</svg>