<svg enable-background="new 0 0 128 128" viewBox="0 0 128 128" xmlns="http://www.w3.org/2000/svg"><g fill="#0f0f0f"><path d="m63.4 96-53-28.8v2.6l53 28.7 59.3-31.4v-2.6zm0-15.7-50.4-26.1v2.6l50.4 26.1 59.3-31.4v-2.5zm0 20.9-53-28.7v2.6l53 28.7 59.3-31.3v-2.6zm0-26.1-50.4-26.1v2.6l50.4 26.1 59.3-31.4v-2.6z"/><path d="m10.4 59.4c-7.5-4.7-2.4-11.9 0-13.1 3.8-1.8 52.3 26.1 52.3 26.1l65.3-34s-53.3-21.8-57.5-23.5c-4.2-1.8-4.1-1.7-7.8 0-13.5 6.3-45.6 20.9-54.9 26.2-11 6.2-6.2 18.2-2.8 20.8-.5.1-.9.4-1.3.9-5.5 6.6-4 15.6-1.1 17.6 3.9 2.7 60.1 34 60.1 34l65.3-34v-5.2l-65.3 34s-47.4-26.7-54.9-31.4c-6.8-4.4-1.1-12.4 1.8-13.1 13.7 7.7 53 28.7 53 28.7l65.3-34v-5.2l-65.3 34c.1 0-44.7-24.1-52.2-28.8zm57.5-36.6 39.2 15.7-18.3 7.8-39.2-15.6z"/></g></svg>